<svg version="1.1" xmlns="http://www.w3.org/2000/svg" viewBox="715 435 650 520" width="325" height="260">
<path transform="translate(0,0)" fill="rgb(53,121,22)" d="M 1330.73 449.255 C 1332.06 448.951 1331.68 449.15 1333.31 449.621 C 1334.25 452.753 1333.87 482.518 1333.96 488.923 C 1334.24 502.543 1334.75 516.158 1335.49 529.762 C 1337.09 558.423 1339.34 587.044 1342.25 615.602 C 1346.85 664.658 1352.13 712.724 1336.01 760.542 C 1321.06 805.492 1288.62 842.521 1246.04 863.266 C 1189.51 891.155 1123.06 888.852 1064.47 868.863 L 1076.04 848.255 C 1138.43 865.861 1204.28 868.317 1259.37 827.567 C 1293.33 802.449 1313.61 767.177 1319.65 725.475 C 1284.15 730.039 1243.17 738.76 1207.25 744.565 C 1176.37 749.555 1139.01 754.414 1108.96 760.644 C 1103.3 766.469 1093.92 780.619 1088.74 787.798 C 1065.46 820.094 1045.07 850.785 1029.01 887.32 C 1024.57 897.411 1011.72 933.272 1008.17 938.691 C 1006.22 941.67 1003.05 943.632 999.509 944.047 C 991.905 944.967 987.235 940.198 986.482 933.005 C 982.501 895.009 982.113 855.536 977.03 817.702 C 968.903 835.971 952.938 870.634 939.249 884.831 C 924.826 899.789 911.919 867.438 906.239 857.619 C 894.976 838.145 884.314 814.22 870.851 795.845 L 870.074 794.797 C 862.433 792.005 840.696 788.428 831.713 786.752 L 760.331 773.485 C 783.575 815.526 815.318 824.559 861.676 819.209 C 866.308 826.905 869.73 833.475 873.79 841.437 C 866.245 842.35 858.78 843.311 851.191 843.79 C 786.38 847.872 739.934 815.145 730.222 750.074 C 727.599 723.312 732.447 696.107 735.741 669.412 C 739.06 643.803 741.684 618.108 743.61 592.355 C 776.611 600.2 809.503 610.74 842.521 618.806 C 855.412 621.955 869.638 625.812 881.904 630.69 C 892.182 634.737 901.914 640.054 910.872 646.517 C 932.956 662.304 947.697 686.368 951.73 713.213 C 956.527 744.722 947.101 779.39 928.144 804.868 C 923.608 797.483 918.969 789.119 914.578 781.568 C 919.745 773.202 923.598 764.093 926.003 754.559 C 933.094 726.706 928.505 705.865 914.181 681.831 C 906.147 714.494 897.817 747.083 889.193 779.595 C 904.276 805.547 917.092 827.346 931.424 854.175 C 949.03 825.927 960.672 794.267 976.971 765.523 C 980.633 759.064 995.751 761.215 997.071 773.688 C 998.241 784.739 999.362 796.012 1000.34 807.15 L 1006.37 879.3 C 1021.55 845.752 1033.4 824.606 1054.8 794.03 C 1064.4 780.312 1085.96 752.95 1093.18 739.607 C 1093.02 724.438 1086.29 686.377 1083.75 670.262 C 1077.27 628.867 1070.55 587.51 1063.6 546.192 C 995.106 602.095 1001.31 665.763 1010.95 743.526 L 986.469 738.896 C 978.51 679.249 974.884 619.368 1010.98 566.99 C 1061.35 493.918 1138.3 486.738 1217.83 471.961 C 1255.57 464.951 1293.12 456.494 1330.73 449.255 z"/>
<path transform="translate(0,0)" fill="rgb(255,255,255)" d="M 1174.65 504.345 C 1177.17 507.357 1173.31 623.873 1172.88 637.081 C 1167.92 645.352 1158.67 656.898 1152.63 664.813 L 1114.6 713.967 L 1111.27 692.007 C 1102.24 639.656 1093.94 584.458 1085.57 531.891 C 1113.71 516.414 1143.34 510.113 1174.65 504.345 z"/>
<path transform="translate(0,0)" fill="rgb(255,255,255)" d="M 1318.2 624.273 L 1319.54 625.552 C 1322.94 650.112 1323.16 675.853 1322.93 700.615 C 1305.77 704.236 1285.14 707.385 1267.64 710.42 C 1223.88 717.959 1180.06 725.208 1136.2 732.168 L 1131.54 732.33 L 1131.41 731.228 C 1148.28 708.07 1166.53 685.664 1183.85 662.827 C 1186.04 659.936 1188.4 657.278 1190.87 654.621 C 1202.63 651.033 1221.37 647.237 1233.92 644.272 L 1318.2 624.273 z"/>
<path transform="translate(0,0)" fill="rgb(255,255,255)" d="M 782.598 627.601 C 788.443 628.644 804.497 633.247 811.147 635.106 C 840.389 643.282 867.916 647.499 894.069 663.853 C 889.095 687.022 881.828 713.594 875.835 736.768 L 871.299 754.912 C 842.491 714.381 809.844 668.729 782.598 627.601 z"/>
<path transform="translate(0,0)" fill="rgb(255,255,255)" d="M 762.336 641.542 C 766.416 644.713 848.454 763.666 848.668 764.803 C 846.045 765.885 843.474 764.872 840.243 764.328 C 812.163 758.477 782.011 753.625 753.492 748.083 C 750.795 714.534 760.072 676.129 762.336 641.542 z"/>
<path transform="translate(0,0)" fill="rgb(255,255,255)" d="M 1310.47 497.696 C 1311.89 502.546 1312.38 532.708 1312.72 539.598 C 1313.73 559.794 1315.24 579.962 1317.26 600.083 L 1218.36 623.828 L 1215.29 624.484 L 1214.49 623.595 C 1221.16 612.971 1237.14 593.4 1245.26 582.714 C 1266.79 554.216 1288.53 525.876 1310.47 497.696 z"/>
<path transform="translate(0,0)" fill="rgb(255,255,255)" d="M 1287.94 482.244 C 1289.69 482.011 1288.75 481.956 1290.72 482.628 C 1290.22 486.092 1208.31 592.346 1199.75 603.501 L 1198.44 604.614 C 1197.25 602.822 1199.11 509.528 1199.24 499.481 C 1226.65 495.614 1260.67 488.294 1287.94 482.244 z"/>
</svg>
